<?xml version="1.0" encoding="utf-8"?>
<!-- Generator: Adobe Illustrator 25.1.0, SVG Export Plug-In . SVG Version: 6.00 Build 0)  -->
<svg version="1.1" id="Layer_1" xmlns="http://www.w3.org/2000/svg" xmlns:xlink="http://www.w3.org/1999/xlink" x="0px" y="0px"
	 viewBox="0 0 500 500" style="enable-background:new 0 0 500 500;" xml:space="preserve">
<style type="text/css">
	.st0{fill:#212C61;}
	.st1{fill:#F8F5D7;}
</style>
<g>
	<rect class="st0" width="500" height="500"/>
</g>
<g transform="translate(0.000000,1280.000000) scale(0.100000,-0.100000)">
	<path class="st1" d="M2412.5,12191.8c-118.6-23.6-254.3-100.7-383.9-217.1c-266.1-239.6-532.5-625.7-711.8-1031.1
		c-212.5-481.1-288.6-946.8-220.4-1350.7c39.3-232.5,126.4-442.1,258.2-622.5c57.1-77.9,155.7-182.5,230-243.9
		c159.3-131.4,355.4-231.1,553.2-280.7c311.1-78.2,646.4-52.5,936.1,71.4c463.2,198.2,773.2,618.2,840,1139.3
		c20.4,160.4,18.6,361.1-5.4,524.6c-35.7,246.1-102.5,478.6-210,730.3c-36.1,83.9-120.4,254.6-166.4,335.7
		c-214.6,379.6-466.4,680-702.5,838.6c-80,53.6-175.7,95-249.3,107.5C2536,12201.1,2454.2,12200.4,2412.5,12191.8z"/>
</g>
<g>
	<path class="st0" d="M173.1,268.1c1.4-1.9,3.2-3.4,5.3-4.6c2.1-1.2,4.5-1.8,7.3-1.8c2.9,0,5,0.7,6.5,2c1.5,1.3,2.2,3.5,2.2,6.5
		v15.3c0,1.7,1.7,2.6,5,2.6v3.3h-16.6v-3.3c2.6,0,3.8-0.9,3.8-2.6v-12.8c0-2.4-0.3-4.1-1-5.1c-0.6-1-1.6-1.5-2.9-1.5
		c-1,0-2,0.2-2.9,0.6c-0.9,0.4-1.8,0.9-2.7,1.6c-0.9,0.7-1.6,1.5-2.3,2.4c-0.7,0.9-1.3,1.9-1.7,3v11.9c0,1.7,1.3,2.6,3.8,2.6v3.3
		h-16.6v-3.3c3.3,0,4.9-0.9,4.9-2.6v-32.4c0-1.7-1.6-2.6-4.9-2.6v-3.3h12.7V268.1z"/>
	<path class="st0" d="M232.9,285.8c0,1.7,0.6,2.5,1.7,2.5c0.5,0,0.9-0.3,1.2-0.8c0.3-0.5,0.4-1.1,0.4-1.7v-3.4h2.7v2.6
		c0,1.3-0.2,2.3-0.5,3.2c-0.3,0.9-0.7,1.6-1.3,2.1c-0.6,0.5-1.2,0.9-2,1.1c-0.8,0.2-1.6,0.3-2.5,0.3c-1,0-1.9-0.2-2.6-0.5
		s-1.3-0.8-1.8-1.3c-0.5-0.5-0.9-1.1-1.1-1.8c-0.3-0.7-0.5-1.4-0.6-2.2c-0.4,0.8-1,1.6-1.7,2.4c-0.7,0.8-1.6,1.4-2.7,2
		c-1,0.6-2.2,1.1-3.5,1.4c-1.3,0.3-2.7,0.5-4.2,0.5c-3.6,0-6.2-0.7-7.9-2.2s-2.5-3.5-2.5-6c0-1.5,0.3-2.8,0.9-3.8
		c0.6-1,1.4-1.9,2.5-2.5c1-0.7,2.3-1.2,3.7-1.6c1.4-0.4,2.9-0.8,4.5-1.1c1.6-0.3,3.2-0.6,4.9-0.9c1.7-0.3,3.4-0.7,5.1-1.1v-1.8
		c0-1-0.1-1.8-0.4-2.7c-0.2-0.8-0.6-1.6-1.2-2.2c-0.6-0.6-1.2-1.1-2.1-1.5s-1.8-0.5-3-0.5c-1.9,0-3.6,0.2-4.9,0.6
		c-1.3,0.4-2.4,0.9-3.2,1.5c0.9,0.1,1.6,0.4,2.2,0.9c0.6,0.5,0.9,1.2,0.9,2.1c0,1.1-0.3,1.9-1,2.6c-0.7,0.7-1.7,1-3,1
		s-2.3-0.4-3-1.1c-0.7-0.7-1-1.7-1-2.9c0-1,0.3-1.9,0.9-2.9c0.6-1,1.5-1.8,2.6-2.6c1.1-0.8,2.6-1.4,4.3-1.8c1.7-0.5,3.6-0.7,5.8-0.7
		c1.8,0,3.5,0.2,5.1,0.5c1.6,0.3,3.1,0.9,4.3,1.7c1.3,0.8,2.3,1.9,3,3.2c0.7,1.4,1.1,3.1,1.1,5.1V285.8z M225.4,275.3
		c-2.4,0.6-4.6,1.2-6.4,1.7s-3.3,1.1-4.5,1.7c-1.2,0.6-2.1,1.3-2.6,2c-0.6,0.8-0.9,1.7-0.9,2.9c0,1.4,0.5,2.4,1.4,3.2
		c1,0.8,2.4,1.1,4.3,1.1s3.7-0.5,5.2-1.4c1.5-0.9,2.6-2,3.3-3.2V275.3z"/>
	<path class="st0" d="M253.7,262.3h7.6l-0.3,4.1c-1.1-0.2-2.2-0.4-3.4-0.5c-1.2-0.1-2.5-0.1-3.9-0.1v20c0,1.7,0.8,2.6,2.5,2.6
		c0.9,0,1.5-0.2,1.8-0.7c0.3-0.5,0.5-1.1,0.5-1.9v-3.3h2.8v2.5c0,1-0.1,2-0.3,2.8c-0.2,0.8-0.6,1.6-1.1,2.1s-1.3,1.1-2.2,1.4
		c-0.9,0.3-2.1,0.5-3.5,0.5c-3,0-5.1-0.7-6.4-2c-1.3-1.3-1.9-3.2-1.9-5.6v-18.4h-5V263c1.1-0.1,2.1-0.2,3-0.5
		c0.9-0.2,1.8-0.6,2.5-1.2c0.7-0.6,1.3-1.4,1.7-2.4c0.4-1,0.6-2.4,0.6-4v-1.3l5.1-0.4V262.3z"/>
	<path class="st0" d="M294.5,281.4c-0.2,1.4-0.6,2.7-1.2,4c-0.6,1.3-1.4,2.5-2.4,3.5c-1,1-2.3,1.9-3.8,2.5c-1.5,0.6-3.3,0.9-5.4,0.9
		c-2.3,0-4.4-0.3-6.3-0.9c-1.9-0.6-3.6-1.5-5-2.8c-1.4-1.2-2.5-2.8-3.3-4.7c-0.8-1.9-1.2-4.2-1.2-6.8c0-5.1,1.4-9,4.2-11.8
		c2.8-2.8,6.6-4.2,11.6-4.2c1.8,0,3.5,0.2,5,0.6c1.5,0.4,2.9,1,4,1.8c1.1,0.8,2,1.6,2.6,2.6c0.6,1,0.9,2.1,0.9,3.3
		c0,1.2-0.3,2.2-1,3c-0.7,0.8-1.7,1.2-3,1.2c-1.3,0-2.2-0.4-2.9-1.1c-0.7-0.7-1-1.6-1-2.5c0-0.9,0.3-1.6,0.9-2.3
		c0.6-0.6,1.4-1,2.3-1.1c-0.6-0.7-1.5-1.3-2.5-1.7c-1-0.4-2.4-0.6-4.1-0.6c-3,0-5.2,1-6.8,3c-1.6,2-2.4,4.9-2.4,8.9
		c0,2.2,0.2,4.1,0.7,5.7c0.4,1.6,1.1,2.9,1.9,3.9c0.8,1,1.7,1.7,2.8,2.2c1.1,0.5,2.3,0.7,3.5,0.7c1,0,1.9-0.1,2.9-0.4
		c0.9-0.3,1.8-0.7,2.5-1.3c0.8-0.6,1.4-1.4,1.9-2.3c0.5-1,0.9-2.1,1.1-3.5L294.5,281.4z"/>
	<path class="st0" d="M311.8,268.1c1.4-1.9,3.2-3.4,5.3-4.6c2.1-1.2,4.5-1.8,7.3-1.8c2.9,0,5,0.7,6.5,2c1.5,1.3,2.2,3.5,2.2,6.5
		v15.3c0,1.7,1.7,2.6,5,2.6v3.3h-16.6v-3.3c2.6,0,3.8-0.9,3.8-2.6v-12.8c0-2.4-0.3-4.1-1-5.1c-0.6-1-1.6-1.5-2.9-1.5
		c-1,0-2,0.2-2.9,0.6c-0.9,0.4-1.8,0.9-2.7,1.6s-1.6,1.5-2.3,2.4c-0.7,0.9-1.3,1.9-1.7,3v11.9c0,1.7,1.3,2.6,3.8,2.6v3.3H299v-3.3
		c3.3,0,4.9-0.9,4.9-2.6v-32.4c0-1.7-1.6-2.6-4.9-2.6v-3.3h12.7V268.1z"/>
</g>
</svg>
